<svg xmlns="http://www.w3.org/2000/svg" width="641" height="316" viewBox="0 0 641 316">
    <g fill="none" fill-rule="evenodd" opacity=".2">
        <path fill="#0097EE" d="M113.931 266.47l-6.554 2.79L9.42 311.246l-1.278-3.025-.03-.034v-.033l-.033-.034-1.311-3.059 9.143-3.899v-.034l8.269-3.53 80.506-34.488 6.589-2.823c-.037.202-.037.403-.037.605 0 2.252 1.045 4.269 2.692 5.58M190.906 257.53c-.571 1.008-.873 2.15-.873 3.36s.302 2.354.873 3.362h-66.254c.572-1.008.874-2.151.874-3.361 0-1.21-.302-2.353-.874-3.362h66.254zM246.472 230.47l-5.882 4.101-30.455 21.345-5.883 4.101c-.268-2.386-1.781-4.437-3.865-5.479l5.882-4.134 30.455-21.312 5.883-4.101c.268 2.387 1.781 4.437 3.865 5.48M318.103 240.183c-1.24 1.311-2.017 2.992-2.017 4.942 0 .504.067 1.008.134 1.479l-6.823-1.95L261.7 231.04l-6.894-1.983c1.244-1.277 2.02-3.025 2.02-4.941 0-.505-.07-.975-.138-1.48l6.827 1.95 47.73 13.614 6.857 1.983zM398.006 209.023l-6.286 3.361-55.06 29.38-6.286 3.36c0-2.453-1.278-4.638-3.163-5.915l6.289-3.362 55.057-29.379 6.29-3.328c0 2.454 1.273 4.605 3.16 5.883M480.765 219.343c-1.18 1.244-1.885 2.959-1.885 4.774 0 .571.07 1.143.238 1.714l-6.961-1.714-57.914-14.488-6.959-1.748c1.14-1.244 1.846-2.925 1.846-4.773 0-.605-.064-1.177-.232-1.715l6.955 1.715 57.954 14.487 6.958 1.748zM535.32 193.729l-5.846 4.067-30.522 21.379-5.818 4.067c-.303-2.42-1.782-4.437-3.866-5.479l5.849-4.1 30.522-21.279 5.849-4.1c.302 2.386 1.785 4.403 3.832 5.445M639.66 148.45l-87.398 36.774-6.589 2.756c.034-.202.034-.437.034-.639 0-2.218-1.009-4.201-2.619-5.546l6.555-2.756 87.398-36.808 2.618 6.219z"/>
        <path fill="#0097EE" d="M100.384 225.63l-5.21 4.907-70.994 67.061-13.785 13.009-2.25-2.387-.033-.033v-.034l-.033-.033-2.286-2.42 16.168-15.262.034-.067 68.54-64.708 5.21-4.907c.639 2.319 2.353 4.1 4.639 4.874M154.436 220.217c-.74 1.143-1.18 2.487-1.18 3.899 0 .975.205 1.916.575 2.756l-7.126-.638-31.026-2.79-7.096-.639c.743-1.143 1.18-2.487 1.18-3.933 0-.975-.205-1.916-.572-2.79l7.126.639 31.027 2.823 7.092.673zM277.194 166.972l-6.353 3.328-96.974 50.59-6.323 3.294v-.068c0-2.453-1.24-4.605-3.126-5.882l6.32-3.294 97.01-50.624 6.32-3.294v.067c0 2.454 1.244 4.605 3.126 5.883M333.364 167.174c-.975 1.244-1.546 2.756-1.546 4.437 0 .74.1 1.479.34 2.151l-7.026-1.277-31.298-5.68-7.056-1.278c1.005-1.21 1.576-2.757 1.576-4.437 0-.74-.1-1.48-.332-2.152l7.025 1.278 31.292 5.68 7.025 1.278zM394.005 130.936l-5.513 4.505-37.006 30.253-5.516 4.504c-.471-2.353-2.085-4.303-4.27-5.177l5.547-4.537 36.976-30.253 5.513-4.505c.47 2.387 2.087 4.27 4.269 5.21M434.713 145.56l5.95 4c-2.05 1.075-3.53 3.159-3.765 5.546l-5.916-3.933-24.912-16.606-5.946-3.933c2.05-1.109 3.496-3.193 3.731-5.613l5.95 3.933v.033l24.908 16.572zM550.548 98.868l-6.219 3.53-86.994 49.682-6.185 3.563c-.067-2.454-1.378-4.639-3.361-5.849l6.218-3.53 86.995-49.715 6.185-3.53c.067 2.488 1.378 4.606 3.361 5.85M639.157 110.566l-1.613 6.521-70.997-17.748-6.955-1.748c1.176-1.244 1.882-2.958 1.882-4.773 0-.605-.067-1.177-.239-1.748l6.962 1.748 70.96 17.748z"/>
        <path fill="#0097EE" d="M93.693 163.947l-71.7 126.423-6.08 10.757-4.908 8.673-2.894-1.614c.98.534.98.523 0-.034-.98-.556-1.966-1.105-2.958-1.647L87.844 160.62l3.496-6.219c1.244 1.983 3.399 3.294 5.883 3.328l-3.53 6.219zM139.746 161.157c-1.378 1.31-2.252 3.16-2.252 5.176 0 .404.034.807.101 1.21l-6.79-2.252-21.749-7.26-6.756-2.252c1.378-1.311 2.218-3.16 2.218-5.177 0-.403-.033-.807-.1-1.21l6.79 2.252 21.745 7.26 6.793 2.253zM195.108 120.65l-5.042 5.043-33.544 33.547-5.042 5.042c-.676-2.286-2.49-4.101-4.773-4.74l5.072-5.075 33.514-33.514 5.076-5.076c.638 2.286 2.454 4.101 4.74 4.773M258.303 108.583c0 1.446.403 2.723 1.109 3.832l-7.09.538-41.48 3.193-7.126.538c.404-.874.602-1.849.602-2.857 0-1.412-.403-2.723-1.14-3.832l7.127-.571 41.48-3.194 7.126-.538c-.403.874-.608 1.85-.608 2.891M336.122 57.321l-5.648 4.437-52.371 41.144-5.614 4.404c-.437-2.387-2.016-4.336-4.168-5.278l5.614-4.403 52.405-41.178 5.58-4.37c.437 2.353 2.05 4.303 4.202 5.244M389.602 66.565c0 .538.068 1.076.169 1.58l-6.891-1.882-31.833-8.673-6.895-1.882c1.214-1.278 1.953-3.026 1.953-4.908 0-.538-.067-1.076-.168-1.614l6.891 1.883 31.833 8.706 6.891 1.882c-1.21 1.278-1.95 2.992-1.95 4.908M467.116 20.412l-5.812 4.169-51.669 36.908-5.815 4.135c-.303-2.42-1.815-4.437-3.896-5.446l5.812-4.168 51.665-36.908 5.816-4.135c.306 2.387 1.815 4.437 3.899 5.445M585.44 35.943c-.942 1.21-1.513 2.69-1.513 4.336 0 .807.134 1.58.403 2.286l-7.059-1.176-50.085-8.37-44.808-12.202-6.925-1.883c1.244-1.277 1.983-3.025 1.983-4.908 0-.537-.064-1.075-.168-1.58l6.891 1.883 44.607 12.168 49.614 8.27 7.06 1.176zM640.601 79.81l-4.47 5.008L598.92 51.74l-5.379-4.773c2.219-.773 3.9-2.656 4.471-5.009l5.345 4.74 37.245 33.11z"/>
        <path fill="#17E0E3" d="M104.517 150.601c0 2.017-.84 3.866-2.215 5.177-1.315 1.21-3.03 1.95-4.945 1.95h-.135c-2.484-.034-4.638-1.345-5.882-3.328-.706-1.076-1.11-2.387-1.11-3.799 0-3.966 3.194-7.16 7.127-7.16 3.566 0 6.49 2.555 7.062 5.95.064.403.098.807.098 1.21m-7.16-13.883c-7.627 0-13.85 6.22-13.85 13.883 0 3.933 1.648 7.53 4.337 10.017 1.617 1.58 3.63 2.723 5.849 3.328 1.143.336 2.386.504 3.664.504 4.908 0 9.244-2.554 11.701-6.42 1.207-1.849 1.98-4.067 2.148-6.387.034-.336.034-.706.034-1.042 0-7.664-6.22-13.883-13.883-13.883M144.654 173.493c-3.53 0-6.488-2.555-7.06-5.95-.067-.403-.1-.806-.1-1.21 0-2.017.874-3.866 2.252-5.176 1.277-1.21 2.992-1.95 4.908-1.95.706 0 1.411.1 2.05.336 2.286.639 4.101 2.454 4.773 4.74.202.638.303 1.344.303 2.05 0 3.967-3.193 7.16-7.126 7.16m11.866-14.253c-1.143-1.95-2.79-3.596-4.74-4.773-2.084-1.244-4.538-1.983-7.126-1.983-4.908 0-9.244 2.555-11.698 6.42-1.21 1.85-1.983 4.068-2.151 6.387-.034.336-.034.706-.034 1.042 0 7.664 6.219 13.883 13.883 13.883 7.63 0 13.849-6.219 13.849-13.883 0-2.588-.706-5.042-1.983-7.093M197.16 120.954c-.706 0-1.412-.1-2.05-.303-2.286-.672-4.102-2.487-4.744-4.773-.232-.638-.332-1.344-.332-2.05 0-3.933 3.193-7.16 7.126-7.16 2.52 0 4.773 1.344 6.017 3.328.74 1.109 1.143 2.42 1.143 3.832 0 1.008-.202 1.983-.605 2.857-1.11 2.521-3.63 4.269-6.555 4.269m13.143-11.53c-1.815-5.513-7.025-9.48-13.143-9.48-7.634 0-13.85 6.22-13.85 13.884 0 2.588.74 5.042 1.984 7.126 1.176 1.95 2.823 3.597 4.773 4.74 2.05 1.277 4.501 1.983 7.093 1.983 6.857 0 12.572-5.009 13.68-11.53.135-.773.203-1.546.203-2.32 0-1.546-.236-3.025-.74-4.403M265.43 115.71c-2.522 0-4.74-1.311-6.018-3.294-.706-1.11-1.109-2.387-1.109-3.832 0-1.043.202-2.017.609-2.891 1.109-2.521 3.593-4.27 6.517-4.27 1.046 0 2.02.202 2.891.606 2.152.94 3.735 2.89 4.172 5.277.064.404.097.84.097 1.278 0 3.932-3.19 7.126-7.16 7.126m12.676-12.807c-.944-2.084-2.386-3.9-4.171-5.278-2.353-1.849-5.311-2.924-8.505-2.924-6.82 0-12.534 4.975-13.647 11.53-.135.773-.202 1.546-.202 2.353 0 1.512.236 2.991.743 4.37 1.815 5.512 7.022 9.479 13.106 9.479 7.664 0 13.883-6.219 13.883-13.85 0-2.016-.437-3.932-1.207-5.68M346.104 50.8c0 1.883-.74 3.63-1.95 4.908-1.31 1.378-3.16 2.219-5.176 2.219-1.009 0-1.983-.202-2.857-.606-2.148-.94-3.765-2.89-4.202-5.243-.064-.437-.101-.84-.101-1.278 0-3.933 3.227-7.16 7.16-7.16 3.398 0 6.218 2.387 6.958 5.547.1.538.168 1.075.168 1.613m-7.126-13.882c-7.63 0-13.883 6.218-13.883 13.882 0 2.017.437 3.933 1.244 5.648.91 2.084 2.353 3.899 4.138 5.31 2.353 1.816 5.31 2.891 8.5 2.891 5.177 0 9.685-2.857 12.072-7.059 1.072-1.916 1.744-4.134 1.778-6.52v-.27c0-7.664-6.219-13.882-13.85-13.882M396.762 73.692c-3.395 0-6.252-2.387-6.992-5.547-.1-.504-.168-1.042-.168-1.58 0-1.916.74-3.63 1.95-4.907 1.31-1.378 3.16-2.252 5.21-2.252 1.143 0 2.219.269 3.16.773 2.084 1.008 3.597 3.025 3.899 5.445.034.303.067.639.067.941 0 3.933-3.193 7.127-7.126 7.127m12.874-12.202c-.806-2.152-2.185-4.034-3.899-5.48-2.42-2.084-5.58-3.327-8.975-3.327-5.21 0-9.748 2.857-12.101 7.092-1.11 1.916-1.715 4.135-1.782 6.488v.302c0 7.63 6.219 13.85 13.883 13.85 7.63 0 13.85-6.22 13.85-13.85 0-1.781-.337-3.495-.976-5.075M477.437 14.026c0 1.882-.74 3.63-1.984 4.908-1.31 1.378-3.16 2.252-5.176 2.252-1.143 0-2.219-.269-3.16-.773-2.084-1.009-3.597-3.06-3.9-5.446-.033-.302-.066-.638-.066-.94 0-3.934 3.193-7.127 7.126-7.127 3.395 0 6.252 2.386 6.992 5.546.1.504.168 1.042.168 1.58m-7.16-13.85c-7.63 0-13.85 6.22-13.85 13.85 0 1.782.337 3.496.975 5.076.807 2.151 2.185 4.034 3.9 5.479 2.42 2.084 5.546 3.328 8.975 3.328 5.21 0 9.748-2.857 12.101-7.093 1.11-1.916 1.714-4.134 1.782-6.487v-.303c0-7.63-6.22-13.85-13.883-13.85M593.541 46.968c-.773.302-1.58.47-2.454.47-3.126 0-5.815-2.017-6.756-4.874-.269-.706-.403-1.479-.403-2.286 0-1.647.571-3.126 1.512-4.336 1.278-1.714 3.362-2.79 5.647-2.79 3.933 0 7.127 3.193 7.127 7.126 0 .572-.068 1.143-.202 1.681-.571 2.353-2.252 4.235-4.47 5.009m-2.455-20.539c-5.68 0-10.588 3.429-12.706 8.337-.773 1.68-1.176 3.563-1.176 5.512 0 .37 0 .74.067 1.11.538 7.16 6.555 12.773 13.815 12.773 2.925 0 5.614-.908 7.833-2.42 1.848-1.311 3.395-3.025 4.437-5.042 1.008-1.916 1.58-4.101 1.58-6.42 0-7.631-6.22-13.85-13.85-13.85M554.313 99.945c-1.378 0-2.655-.403-3.765-1.076-1.983-1.243-3.297-3.361-3.361-5.849v-.201c0-3.933 3.193-7.16 7.126-7.16 3.328 0 6.152 2.32 6.925 5.412.168.571.235 1.143.235 1.748 0 1.815-.706 3.53-1.882 4.773-1.281 1.445-3.194 2.353-5.278 2.353m0-21.01c-7.634 0-13.849 6.22-13.849 13.884 0 1.31.168 2.554.538 3.73.605 2.22 1.781 4.236 3.328 5.85 2.52 2.622 6.084 4.269 9.983 4.269 5.311 0 9.916-2.958 12.236-7.328 1.042-1.95 1.647-4.168 1.647-6.521 0-7.664-6.219-13.883-13.883-13.883M451.15 155.845c0 3.933-3.19 7.127-7.127 7.127-3.933 0-7.16-3.194-7.16-7.127 0-.235 0-.504.037-.74.232-2.386 1.714-4.47 3.761-5.545.975-.572 2.155-.874 3.362-.874 1.415 0 2.692.403 3.765 1.109 1.983 1.21 3.294 3.395 3.361 5.849v.201zm6.184-3.764c-.605-2.219-1.748-4.202-3.324-5.816-2.491-2.655-6.05-4.302-9.987-4.302-3.563 0-6.857 1.344-9.311 3.596-1.681 1.513-2.989 3.43-3.732 5.614-.571 1.48-.84 3.025-.84 4.672 0 7.63 6.252 13.85 13.883 13.85 7.63 0 13.849-6.22 13.849-13.85 0-1.31-.168-2.554-.538-3.764zM486.04 231.276c-3.324 0-6.147-2.286-6.924-5.412v-.034c-.165-.571-.235-1.143-.235-1.714 0-1.815.706-3.53 1.886-4.773 1.277-1.446 3.193-2.353 5.274-2.353 1.18 0 2.255.269 3.227.773 2.084 1.042 3.566 3.059 3.865 5.479v.034c.034.302.034.571.034.84 0 3.933-3.19 7.16-7.126 7.16m12.91-12.101c-.806-2.152-2.12-4.034-3.834-5.513-2.42-2.118-5.614-3.395-9.076-3.395-5.274 0-9.88 2.958-12.236 7.328-1.039 1.95-1.647 4.168-1.647 6.521 0 7.664 6.252 13.883 13.883 13.883 7.633 0 13.849-6.219 13.849-13.883 0-1.748-.333-3.429-.938-4.941M538.547 194.502c-1.177 0-2.252-.269-3.227-.773-2.047-1.042-3.53-3.059-3.832-5.446-.03-.302-.068-.638-.068-.94 0-3.934 3.194-7.127 7.127-7.127 1.717 0 3.294.605 4.541 1.58 1.61 1.344 2.619 3.328 2.619 5.546 0 .202 0 .437-.034.639-.303 3.664-3.361 6.521-7.126 6.521m13.714-9.278c-.336-2.319-1.277-4.403-2.618-6.185-2.521-3.361-6.555-5.546-11.096-5.546-7.63 0-13.85 6.219-13.85 13.85 0 1.78.337 3.461.942 5.041.84 2.118 2.154 3.967 3.835 5.412 2.42 2.152 5.614 3.429 9.073 3.429 7.664 0 13.882-6.219 13.882-13.883 0-.74-.067-1.445-.168-2.118M400.123 130.635c-1.008.537-2.15.84-3.361.84-.975 0-1.882-.202-2.723-.538h-.033c-2.185-.941-3.799-2.823-4.27-5.21-.1-.47-.134-.941-.134-1.412 0-3.933 3.227-7.126 7.16-7.126 3.933 0 7.126 3.193 7.126 7.126 0 .235 0 .47-.033.706-.236 2.42-1.681 4.504-3.732 5.614m-3.361-20.17c-7.664 0-13.883 6.22-13.883 13.85 0 2.118.47 4.135 1.345 5.916.941 2.084 2.454 3.866 4.269 5.21 2.32 1.748 5.176 2.757 8.269 2.757 3.563 0 6.857-1.378 9.311-3.63 1.68-1.513 2.958-3.396 3.731-5.58v-.034c.538-1.446.807-3.025.807-4.639 0-7.63-6.219-13.85-13.849-13.85M402.005 210.267c-1.476 0-2.858-.47-3.997-1.244-1.886-1.277-3.163-3.429-3.163-5.882v-.034c0-3.933 3.227-7.126 7.16-7.126 3.327 0 6.117 2.286 6.894 5.378v.034c.168.537.232 1.109.232 1.714 0 1.849-.706 3.53-1.849 4.773-1.277 1.48-3.193 2.387-5.277 2.387m0-21.01c-7.631 0-13.883 6.22-13.883 13.85 0 1.176.134 2.286.437 3.361.538 2.253 1.613 4.27 3.16 5.917 2.52 2.823 6.218 4.605 10.286 4.605 5.277 0 9.882-2.992 12.239-7.362 1.038-1.95 1.61-4.168 1.61-6.521 0-7.63-6.216-13.85-13.85-13.85M338.977 178.737c-3.19 0-5.916-2.084-6.82-4.975-.239-.672-.34-1.412-.34-2.151 0-1.681.572-3.194 1.547-4.438 1.314-1.647 3.328-2.722 5.613-2.722.975 0 1.886.201 2.727.571 2.181.874 3.795 2.824 4.265 5.177.101.47.135.941.135 1.412 0 3.932-3.19 7.126-7.127 7.126m12.508-13.043c-.944-2.05-2.423-3.865-4.238-5.21-2.316-1.748-5.14-2.756-8.27-2.756-5.613 0-10.45 3.361-12.639 8.168-.806 1.748-1.243 3.664-1.243 5.715 0 .302 0 .605.037.874.437 7.227 6.517 12.975 13.845 12.975 7.634 0 13.85-6.219 13.85-13.85 0-2.117-.471-4.134-1.342-5.916M323.214 252.285c-3.432 0-6.286-2.454-6.992-5.68-.07-.472-.134-.976-.134-1.48 0-1.95.773-3.63 2.013-4.941 1.28-1.345 3.093-2.185 5.113-2.185 1.476 0 2.857.437 3.997 1.21 1.885 1.277 3.163 3.462 3.163 5.916 0 3.933-3.227 7.16-7.16 7.16m13.446-10.521c-.538-2.253-1.647-4.27-3.16-5.917-2.521-2.823-6.219-4.571-10.286-4.571-5.113 0-9.584 2.79-11.97 6.924-1.14 1.916-1.778 4.101-1.846 6.454-.033.169-.033.303-.033.471 0 7.664 6.215 13.883 13.849 13.883 7.664 0 13.883-6.219 13.883-13.883 0-1.143-.135-2.286-.437-3.361M256.825 224.116c0 1.916-.773 3.664-2.02 4.942-1.274 1.378-3.092 2.218-5.106 2.218-1.143 0-2.252-.269-3.227-.807-2.084-1.042-3.597-3.092-3.865-5.479v-.033c-.034-.303-.068-.538-.068-.84 0-3.934 3.227-7.127 7.16-7.127 3.425 0 6.286 2.42 6.992 5.647.064.505.134.975.134 1.48m-7.126-13.85c-7.664 0-13.883 6.219-13.883 13.85 0 1.747.337 3.428.908 4.974.84 2.152 2.151 4.034 3.866 5.48 2.45 2.15 5.613 3.428 9.11 3.428 5.105 0 9.613-2.79 12-6.958 1.109-1.916 1.747-4.101 1.815-6.454.033-.168.033-.303.033-.47 0-7.631-6.222-13.85-13.849-13.85M281.196 168.249c-1.513 0-2.86-.47-4-1.278-1.883-1.277-3.126-3.428-3.126-5.882v-.067c.033-3.9 3.227-7.06 7.126-7.06 3.193 0 5.916 2.085 6.824 4.976.235.672.336 1.411.336 2.15 0 1.682-.572 3.228-1.58 4.438-1.311 1.647-3.328 2.723-5.58 2.723m13.849-8.034c-.437-7.227-6.49-12.975-13.85-12.975-7.633 0-13.848 6.218-13.848 13.849 0 1.11.134 2.185.403 3.227.501 2.252 1.61 4.303 3.093 5.983 2.554 2.858 6.252 4.673 10.353 4.673 5.613 0 10.488-3.362 12.639-8.169.807-1.748 1.244-3.664 1.244-5.714 0-.303 0-.572-.034-.874M160.384 231.276c-2.958 0-5.479-1.815-6.551-4.404-.373-.84-.575-1.781-.575-2.756 0-1.412.44-2.756 1.176-3.9 1.248-1.949 3.466-3.226 5.95-3.226 1.513 0 2.891.47 4.034 1.243 1.886 1.278 3.126 3.43 3.126 5.883v.067c-.034 3.9-3.227 7.093-7.16 7.093m13.483-10.387c-.508-2.252-1.617-4.269-3.13-5.95-2.52-2.857-6.218-4.672-10.353-4.672-6.017 0-11.156 3.866-13.042 9.277-.538 1.412-.807 2.959-.807 4.572 0 .74.067 1.445.172 2.118 1.005 6.655 6.753 11.765 13.677 11.765 7.664 0 13.883-6.219 13.883-13.883 0-1.11-.134-2.185-.4-3.227M197.16 268.017c-2.726 0-5.076-1.512-6.253-3.765-.571-1.008-.873-2.151-.873-3.361 0-1.21.302-2.353.873-3.362 1.177-2.252 3.527-3.798 6.253-3.798 1.176 0 2.286.269 3.227.807 2.084 1.042 3.597 3.092 3.865 5.479v.034c.034.302.068.537.068.84 0 3.933-3.227 7.126-7.16 7.126m12.975-12.101c-.84-2.151-2.151-4.034-3.866-5.513-2.457-2.118-5.613-3.395-9.11-3.395-6.487 0-11.932 4.47-13.411 10.521-.303 1.076-.437 2.185-.437 3.362 0 1.176.134 2.286.437 3.361 1.479 6.017 6.958 10.488 13.412 10.488 7.664 0 13.883-6.219 13.883-13.85 0-1.747-.337-3.428-.908-4.974M118.366 268.017c-1.68 0-3.227-.571-4.434-1.546-1.65-1.311-2.692-3.328-2.692-5.58 0-.202 0-.403.037-.605.3-3.664 3.361-6.555 7.09-6.555 2.756 0 5.112 1.546 6.285 3.798.572 1.009.874 2.152.874 3.362s-.302 2.353-.874 3.361c-1.173 2.253-3.53 3.765-6.286 3.765m13.446-10.488c-1.476-6.05-6.955-10.52-13.446-10.52-7.63 0-13.849 6.218-13.849 13.882 0 .773.067 1.513.171 2.218.367 2.286 1.308 4.37 2.686 6.152 2.521 3.328 6.521 5.479 10.992 5.479 6.491 0 11.97-4.47 13.446-10.488.302-1.075.437-2.185.437-3.361 0-1.177-.135-2.286-.437-3.362M102.636 226c-.774 0-1.547-.135-2.219-.37h-.034c-2.285-.774-4-2.555-4.638-4.875-.168-.605-.27-1.243-.27-1.882 0-3.933 3.228-7.16 7.16-7.16 2.959 0 5.48 1.815 6.555 4.37.37.874.572 1.815.572 2.79 0 1.445-.437 2.79-1.177 3.933-1.277 1.916-3.462 3.193-5.95 3.193m13.682-9.277c-1.042-6.656-6.79-11.732-13.681-11.732-7.664 0-13.883 6.219-13.883 13.883 0 2.487.639 4.807 1.781 6.79 1.143 1.983 2.723 3.664 4.64 4.874 2.15 1.378 4.705 2.185 7.462 2.185 6.017 0 11.16-3.866 13.042-9.278.538-1.411.807-2.958.807-4.571 0-.74-.067-1.446-.168-2.151"/>
        <circle cx="6.153" cy="309.8" r="5.849" fill="#17E0E3"/>
    </g>
</svg>
