<svg xmlns="http://www.w3.org/2000/svg" width="68" height="68" viewBox="0 0 68 68">
    <g fill="none" fill-rule="evenodd" stroke-linecap="round" stroke-linejoin="round" stroke-width="3" transform="translate(2 2)">
        <path stroke="#0097EE" d="M11.176 53.339L17.064 49.067M11.176 10.664L17.064 14.933M52.827 53.339L46.939 49.067M52.827 10.664L46.939 14.933"/>
        <circle cx="6.4" cy="57.6" r="6.4" stroke="#17E0E3"/>
        <circle cx="6.4" cy="6.4" r="6.4" stroke="#17E0E3"/>
        <circle cx="57.6" cy="57.6" r="6.4" stroke="#17E0E3"/>
        <circle cx="57.6" cy="6.4" r="6.4" stroke="#17E0E3"/>
        <path stroke="#17E0E3" d="M32 46.933c.59 0 1.067.478 1.067 1.067 0 .59-.478 1.067-1.067 1.067-.59 0-1.067-.478-1.067-1.067 0-.59.478-1.067 1.067-1.067M23.467 25.6c0-4.34 3.258-7.987 7.57-8.477 4.311-.49 8.304 2.334 9.278 6.562.975 4.229-1.38 8.515-5.47 9.962-1.706.603-2.846 2.216-2.845 4.025v1.795"/>
    </g>
</svg>
